#!OML:ASF I:\golf\golf\golf 2\Subject 1\2002-09-07\Subject1.ASF
:FULLY-SPECIFIED
:DEGREES
264
root -5.97592 18.0326 -1.85898 -180.833 37.28 -183.306
lowerback -6.22557 4.06869 5.89037
upperback 0.140809 6.43766 14.2104
thorax 2.52902 3.97581 12.6563
lowerneck -0.701429 -21.8418 -4.25081
upperneck 29.5789 -25.773 -7.43144
head 9.03121 -12.0148 -3.59843
rclavicle 1.59028e-015 -1.04958e-013
rhumerus 16.6434 36.5058 -96.4913
rradius 23.4483
rwrist -23.5121
rhand -2.37636 -11.2262
rfingers 7.12502
rthumb 23.3124 -39.8347
lclavicle 1.59028e-015 -1.04958e-013
lhumerus 3.1549 -31.8341 93.0502
lradius 35.6735
lwrist 62.8797
lhand -12.4168 59.8798
lfingers 7.12502
lthumb -166.345 -90.5882
rfemur 1.72172 -5.38503 4.21629
rtibia 37.5175
rfoot -2.48222 -24.0351
rtoes 9.58595
lfemur -10.6035 -5.5421 -22.0738
ltibia 12.0114
lfoot 3.95691 -34.4827
ltoes 16.4273
265
root -5.95455 18.0303 -1.91456 -180.693 35.979 -183.322
lowerback -6.2958 4.47602 6.13751
upperback -0.159412 7.01809 13.974
thorax 2.20496 4.28153 12.2431
lowerneck -0.635763 -22.2281 -3.93005
upperneck 29.0393 -26.5108 -6.81574
head 8.866 -12.282 -3.45127
rclavicle 1.03368e-014 -1.43125e-013
rhumerus 20.3631 40.6458 -93.7127
rradius 25.137
rwrist -20.1454
rhand -2.20603 -9.37662
rfingers 7.12502
rthumb 23.4758 -37.9643
lclavicle 1.03368e-014 -1.43125e-013
lhumerus 3.69843 -29.9172 91.8442
lradius 38.3658
lwrist 64.3858
lhand -24.2298 56.2163
lfingers 7.12502
lthumb -177.745 -93.8159
rfemur 2.30325 -5.7127 4.13921
rtibia 37.2307
rfoot -2.06446 -24.0029
rtoes 10.2821
lfemur -10.8707 -6.11138 -22.2695
ltibia 12.4101
lfoot 4.11451 -35.0495
ltoes 16.7681
266
root -5.93482 18.0326 -1.97174 -180.388 34.882 -183.141
lowerback -6.41256 4.92192 6.55565
upperback -0.388928 7.63186 13.7761
thorax 2.00182 4.60412 11.7989
lowerneck -0.670212 -22.5376 -3.48574
upperneck 28.3186 -27.163 -6.22003
head 8.63727 -12.5221 -3.31305
rclavicle -7.95139e-015 2.00375e-013
rhumerus 24.3586 43.6596 -90.6148
rradius 26.9704
rwrist -16.545
rhand -2.06885 -7.21879
rfingers 7.12502
rthumb 23.6074 -35.7896
lclavicle -7.95139e-015 2.00375e-013
lhumerus 4.4 -28.0951 90.6928
lradius 41.0677
lwrist 63.6504
lhand -12.6721 53.2221
lfingers 7.12502
lthumb -166.591 -97.2295
rfemur 2.7789 -5.92108 4.27338
rtibia 36.8852
rfoot -1.41945 -24.0813
rtoes 10.1587
lfemur -11.2548 -6.3976 -22.2744
ltibia 12.9574
lfoot 4.53477 -35.7117
ltoes 17.4509
267
root -5.92267 18.0383 -2.03205 -179.899 33.9911 -182.277
lowerback -6.26674 5.37086 7.60841
upperback -0.54 8.28801 13.7511
thorax 1.79281 4.96839 11.1758
lowerneck -0.722396 -22.7686 -3.14486
upperneck 27.598 -27.6958 -5.576
head 8.44055 -12.7148 -3.15117
rclavicle 7.39479e-014 -5.40694e-014
rhumerus 28.8989 46.2408 -86.716
rradius 29.455
rwrist -15.9141
rhand -1.50186 -5.84727
rfingers 7.12502
rthumb 24.1511 -34.3469
lclavicle 7.39479e-014 -5.40694e-014
lhumerus 5.25157 -26.409 89.5223
lradius 43.597
lwrist 61.7033
lhand -14.4306 49.1687
lfingers 7.12502
lthumb -168.286 -101.179
rfemur 3.3897 -5.88932 5.07883
rtibia 36.4969
rfoot -0.923475 -24.3385
rtoes 10.6128
lfemur -11.4673 -6.47343 -21.6653
ltibia 13.5582
lfoot 5.217 -36.3213
ltoes 19.148
268
root -5.9115 18.0444 -2.09005 -179.394 33.0335 -181.449
lowerback -5.77902 5.71764 8.50395
upperback -0.962906 8.94803 13.7547
thorax 1.0924 5.34146 10.5929
lowerneck -0.516054 -22.9795 -3.02606
upperneck 26.9832 -28.1415 -4.93816
head 8.27589 -12.8715 -2.94706
rclavicle 8.42847e-014 -8.26944e-014
rhumerus 31.3356 46.5653 -85.8362
rradius 31.1932
rwrist -13.2558
rhand -1.268 -4.08365
rfingers 7.12502
rthumb 24.3753 -32.5534
lclavicle 8.42847e-014 -8.26944e-014
lhumerus 5.77742 -24.3987 88.5974
lradius 45.8871
lwrist 59.909
lhand -15.2187 45.8172
lfingers 7.12502
lthumb -169.046 -104.489
rfemur 3.93198 -5.9379 5.89914
rtibia 36.0946
rfoot -0.2473 -24.691
rtoes 10.6646
lfemur -11.7539 -6.64116 -21.0609
ltibia 14.1546
lfoot 5.62043 -36.9079
ltoes 19.9984
269
root -5.89666 18.0487 -2.146 -178.901 32.0689 -181
lowerback -5.55967 6.13003 9.03154
upperback -1.38773 9.6443 13.6144
thorax 0.528256 5.70849 10.0958
lowerneck -0.554925 -23.2073 -2.8244
upperneck 26.3996 -28.6262 -4.29154
head 8.15395 -13.0442 -2.78509
rclavicle -7.95139e-014 1.78111e-013
rhumerus 34.367 47.2999 -84.022
rradius 33.1249
rwrist -11.106
rhand -2.26657 -2.52849
rfingers 7.12502
rthumb 23.4177 -31.1236
lclavicle -7.95139e-014 1.78111e-013
lhumerus 6.54367 -22.5116 87.7107
lradius 48.259
lwrist 59.1342
lhand -16.0942 42.8198
lfingers 7.12502
lthumb -169.891 -107.443
rfemur 4.21894 -6.03962 6.42127
rtibia 35.7096
rfoot 0.778181 -25.0113
rtoes 9.78578
lfemur -12.254 -6.84688 -20.7598
ltibia 14.7205
lfoot 6.2352 -37.4117
ltoes 20.5712
